<?xml version="1.0" standalone="yes"?>
<svg xmlns="http://www.w3.org/2000/svg" width="771" height="227">
<path style="fill:#020202; stroke:none;" d="M0 0L0 227L771 227L771 0L0 0M140 6.34491L142 6.1088L143 6.08025L145 6.19212L146 6.34105L147.996 6.85417L149.96 7.68828L150.907 8.22839L152.671 9.55788C153.785 10.5592 154.705 11.7544 155.467 13.0401C156.203 14.2813 156.783 15.6194 157.2 17C157.496 17.9805 157.691 18.9839 157.815 20C157.976 21.3269 157.98 22.6658 157.996 24L158 29L158 47L158 66L158 72C158.001 73.3322 157.981 74.6687 158.039 76C158.083 77.0056 158.162 78.0009 158.285 79L158.576 81L158.83 83C158.976 84.3272 158.98 85.6668 158.996 87L159 91L159 98L159 118L159 178L159 186L159 193C158.999 195.001 159.019 197.002 158.91 199C158.838 200.344 158.623 201.673 158.409 203C158.025 205.385 157.649 207.822 156.544 209.999L155.347 211.985L154.606 212.957L153.786 213.895L152.895 214.786L151.957 215.606L149.996 216.991L148 217.991L147 218.347L145 218.782L143 218.913L142 218.877L141 218.772L140.001 218.58L138.015 217.91L137.04 217.427L135.185 216.196L133.532 214.671L132.133 212.907L131 210.985L130.533 209.996L129.8 208C129.504 207.02 129.309 206.016 129.185 205C129.024 203.673 129.02 202.334 129.004 201L129 196L129 177L129 131L129 115L129 110L128.985 107C128.961 106 128.939 104.996 128.83 104L128.576 102L128.285 100C128.162 99.0009 128.083 98.0057 128.039 97L128.001 94L128 91L128 82L128 69L128.001 64L128.039 61C128.083 59.9942 128.166 58.9999 128.282 58L128.64 55C128.763 53.3345 128.68 51.6678 128.706 50L128.87 47L128.965 45C129.007 42.6668 129 40.3336 129 38L129 28L129.004 24L129.039 22C129.11 20.6558 129.212 19.3241 129.468 18C129.802 16.2814 130.288 14.5447 131.14 13.0046L132.43 11.0548L133.228 10.1335L135.044 8.51389L137.004 7.3179L138.001 6.89352L140 6.34491M99 199L97.3287 198.672C96.2118 198.423 95.1092 198.127 94.0332 197.735C93.1413 197.411 92.2547 196.932 91.564 196.272C90.6384 195.388 90.0408 194.186 89.7238 192.956L89.483 191.985L89.1744 189.999C89.0647 189.003 89.0396 188.001 89.0147 187L89 184L89 180L89 167L89 68L89 60L88.9961 57C88.9873 55.9997 88.9789 54.9984 88.9105 54L88.7145 52C88.483 50.3359 88.1971 48.6786 88.0903 47C88.0266 45.9992 88.0279 45.002 88.0432 44L88.1698 42C88.2499 40.9941 88.4384 39.9985 88.5764 39L88.8495 37L89.1088 35.0046L89.3032 34.0193L90.027 32.1481L91.3179 30.6042L92.1481 30.0316L94.0154 29.3619L94.9892 29.2569L95.9568 29.287L96.8912 29.4529L98.5664 30.1798L99.821 31.4336L100.258 32.2284L100.566 33.1088L100.891 35.0154L100.985 37.0008L100.999 39L101 46L101 66L101 79L101.001 84L101.039 87C101.083 88.0057 101.162 89.0009 101.285 90L101.576 92L101.83 94C101.939 94.9959 101.961 95.9995 101.985 97L102 100L102 104L102 118L102 160L102 182L101.999 188C101.986 189.993 102.041 192.035 101.512 193.975L100.846 195.84L100.323 196.841L100.079 197.329L99 199M352 55.2894C352.995 55.1822 353.998 55.0779 355 55.1289L357 55.2894L360 55.7292C361.669 55.9691 363.352 56.1429 365 56.5139C367.398 57.0538 369.713 57.925 372 58.811C374.026 59.5956 376.056 60.3977 378 61.3704C379.367 62.0541 380.699 62.8153 382 63.6157C383.698 64.6603 385.364 65.7445 386.999 66.885C388.325 67.8098 389.634 68.7567 390.91 69.7492L391.829 70.5147L393.56 72.1844L395.181 74.0401L396.711 76.0039L397.43 77.0008C398.104 77.9872 398.755 78.9827 399.382 80C400.189 81.3099 400.948 82.6472 401.68 84L402.68 86C403.157 86.9801 403.57 87.9941 403.988 89L405.185 92C405.562 92.9904 405.925 93.9847 406.229 95C406.623 96.3145 406.923 97.655 407.192 99C407.391 99.9943 407.58 100.994 407.711 102C407.841 102.998 407.92 103.995 407.961 105L407.999 108L407.999 111L407.985 113L407.891 114.996L407.566 116.955L407.258 117.887L406.821 118.756L406.258 119.522L405.57 120.149L403.935 120.824L403.065 120.824L401.43 120.149L400.742 119.522L400.179 118.756L399.434 116.955L399.228 115.985L399.044 113.999L398.961 109L398.829 107L398.561 105C398.261 103.328 397.955 101.655 397.572 100C397.338 98.9908 397.076 97.9955 396.791 97L396.477 96L395.743 94C395.176 92.6395 394.573 91.2996 393.876 90C393.136 88.6212 392.318 87.2858 391.427 86C390.714 84.972 389.941 83.9931 389.181 83L387.56 81.0008C386.416 79.6443 385.234 78.3266 383.961 77.0895C382.701 75.8654 381.363 74.726 380 73.6188C378.101 72.0764 376.154 70.5813 374 69.4097C373.035 68.8848 372.019 68.4291 371 68.0193C370.008 67.6205 369.015 67.2278 368 66.8897C367.012 66.5604 366.013 66.2826 365 66.0401C363.358 65.6471 361.68 65.3391 360 65.1705C358.672 65.0373 357.334 65.0077 356 65.0077C355 65.0077 353.998 65.0215 353 65.0895C351.319 65.2041 349.665 65.4892 348 65.7292C346.331 65.9697 344.648 66.1428 343 66.5139C341.298 66.8973 339.63 67.4469 338 68.0656C336.286 68.7162 334.604 69.4568 333 70.3488C329.719 72.1738 326.737 74.5274 324.004 77.0903C322.673 78.3388 321.412 79.6513 320.184 81.0008L318.518 83L317.761 84C317.051 84.9867 316.368 85.9853 315.7 87C315.06 87.9716 314.454 88.976 313.901 90C313.207 91.2864 312.573 92.6173 312.093 94L311.44 96L310.896 98L310.211 101C309.789 102.982 309.373 104.981 309.171 107C309.037 108.331 309.032 109.664 308.988 111C308.956 111.997 308.945 113.008 308.786 113.996L308.606 114.985L308.347 115.955L307.991 116.887L307.544 117.756L306.995 118.522L306.363 119.149L305.649 119.593L304.109 119.824L302.637 119.149L302.005 118.522L301.456 117.756L300.653 115.955L300.215 113.996L300.058 112C300.013 110.663 300.122 109.326 300.285 108L300.729 105C300.967 103.333 301.143 101.655 301.461 100C301.785 98.3114 302.228 96.6461 302.721 95C303.228 93.311 303.792 91.6354 304.453 90C304.863 88.9861 305.305 87.9827 305.785 87C306.278 85.9913 306.775 84.986 307.312 84C307.867 82.9827 308.454 81.9838 309.066 81C310.137 79.2776 311.287 77.6124 312.518 76C313.314 74.9565 314.193 73.9685 315.093 73.0147C316.618 71.399 318.255 69.8928 320 68.5177C320.966 67.7565 321.974 67.0375 323 66.3596L326 64.4529L328 63.3117C328.982 62.7617 329.996 62.2654 331 61.7562C332.653 60.9174 334.309 60.0732 336 59.3117C337.948 58.4341 339.949 57.6482 342 57.0432C342.99 56.7512 343.985 56.5012 345 56.311L348 55.8704L350 55.5795L352 55.2894M61.1296 56.4529L62.9745 56.2569L63.8958 56.3619L64.7724 56.6188L65.5664 57.0316L66.2577 57.6042L66.821 58.3179L67.5664 60.0586L67.8912 62.0046C67.9842 63.3367 67.9922 64.6653 67.9992 66L68 75L68 142L68 154L67.9992 158L67.9807 159.999L67.9414 160.995L67.6821 162.941L67.3966 163.852L66.9722 164.681L66.3966 165.393L64.8526 166.353L63.946 166.573L62.054 166.508L61.1474 166.238L60.3171 165.816L59.5995 165.257L59.0131 164.566L58.564 163.772L57.9784 161.956L57.5949 159.996C57.441 159 57.2527 158.006 57.1698 157L57.0394 155L57.0008 152L57.0008 145L57.0386 142L57.1551 140L57.2461 139C57.3311 138 57.429 137.005 57.429 136C57.429 134.659 57.2567 133.334 57.1551 132C57.0536 130.667 57.0192 129.336 57.0039 128L57 122L57 111L57 78L57 68L57.0401 64.0008L57.189 62.0154L57.5725 60.1088L57.8935 59.2284L58.3179 58.4336L59.5139 57.1798L61.1296 56.4529M265 121L266.374 119.329L267.344 117.84C268.413 115.959 269.294 113.984 270.149 112C271.143 109.693 272.081 107.358 272.947 105L274.695 100C275.063 98.9908 275.45 97.9923 275.861 97L277.139 94C278.091 91.6898 278.908 89.3295 279.811 87C280.974 83.9983 282.224 81.032 283.308 78L284.691 74L285.783 71L286.5 69L286.85 68.0008L287.638 66.0193L288.136 65.0586L289.43 63.3218L290.228 62.6188L292.043 61.7122L293.012 61.5463L293.988 61.5818L295.887 62.1983L297.523 63.4344L298.611 65.1088L298.879 66.044L298.867 68.0039L298.34 70L296.811 74L294.576 80L293.424 83L292.681 85L291.552 88C290.879 89.6679 290.158 91.3145 289.529 93L288.089 97L286.061 102L284.548 106C283.994 107.355 283.375 108.679 282.745 110L281.336 113C280.354 115.286 279.642 117.671 278.772 120L277.203 124C276.681 125.327 276.171 126.657 275.692 128C274.392 131.649 273.282 135.364 271.947 139L270.792 141.996L269.945 143.955L268.925 145.756L268.301 146.522L267.583 147.149L265.907 147.824L264.999 147.824L263.21 147.149L262.393 146.522L261.649 145.756L260.995 144.887L260.417 143.955L259.468 141.996C258.933 140.68 258.463 139.344 258.003 138L255.333 130L253.947 126L252.053 121L249.947 115L248.424 111L246.576 106L245.053 102L243.308 97L241.053 91C240.448 89.3442 239.893 87.6716 239.333 86L237.308 80L235.808 76C235.307 74.676 234.782 73.3568 234.374 72C233.986 70.7086 233.633 69.3665 233.72 68.0039L234.103 66.044L234.497 65.1096L235.024 64.2323L235.657 63.4491L236.394 62.7863L238.09 61.9707L239.91 61.9707L240.79 62.2878L242.351 63.4491L243.586 65.1096L244.095 66.044L244.557 67.0154L245.395 69.0008C246.075 70.6498 246.709 72.3197 247.308 74C248.016 75.9883 248.666 77.9978 249.333 80L251.333 86L252.656 90L253.586 93L254.194 95C254.518 96.0081 254.858 97.0083 255.229 98L256.425 101L258.125 104.996C258.507 105.959 258.853 106.926 259.174 107.91L259.745 109.715L260.402 111.424C260.928 112.653 261.573 113.832 262.154 115.035L265 121M706 93L705.958 94.6713L705.83 96.1605C705.593 98.1098 705.224 100.038 705.089 102C705.021 102.998 705.013 104 705.004 105L705 108L705 117L705.001 123C705.004 124.333 704.998 125.669 705.089 127C705.158 128.007 705.288 129 705.424 130L705.714 132C705.832 132.999 705.923 133.994 705.958 135C705.992 136 705.969 137 705.945 138C705.922 138.997 705.869 140.008 705.756 140.999L705.467 142.985L705.232 143.956L704.911 144.891L704.493 145.772L703.336 147.257L702.603 147.817L700.899 148.522L699.972 148.663L699.029 148.663L698.104 148.522L696.419 147.817C695.05 146.929 694.306 145.457 693.804 143.956C693.381 142.691 693.174 141.328 693.093 140C692.992 138.335 693.003 136.668 693 135L693 124L693 83L693.001 75C693.008 73.664 693.016 72.3342 693.109 71.0008L693.434 69.0193L694.179 67.1481L694.742 66.3187L695.434 65.608L696.228 65.0471L698.044 64.466L699.015 64.466L700.986 65.0471L701.961 65.608L703.826 67.1481L704.7 68.0586C705.535 69.0131 706.339 69.9863 707.101 71.0008C708.829 73.3015 710.456 75.6756 712.151 78C714.123 80.7023 716.142 83.3715 718.211 86L724.575 94C725.848 95.6414 727.08 97.3118 728.29 99L730.421 102L732.579 105C733.784 106.677 734.976 108.363 736.235 110C737.264 111.338 738.323 112.653 739.414 113.941L741.01 115.679L741.93 116.483L742.37 116.914L744 118L744 94L744 79L744.004 76L744.015 75C744.048 73.9975 744.064 72.9975 744.185 72C744.35 70.641 744.639 69.2797 745.148 68.0046L746.089 66.0586L746.703 65.1481L747.419 64.3187L748.225 63.608L750.039 62.662L751.946 62.466L753.697 63.0471L754.436 63.608L755.566 65.1481L756.276 67.0193L756.517 68.0046L756.826 70C756.939 70.9942 756.97 72.0003 756.982 73C756.997 74.3351 756.956 75.6705 756.83 77C756.641 79.0048 756.179 80.9783 756.179 83C756.179 84.685 756.502 86.3352 756.714 88C756.885 89.3308 756.953 90.6597 756.985 92L757 96L757 103L757 125L757 136L756.985 140L756.891 141.999L756.772 142.995L756.258 144.941L755.821 145.852L755.258 146.681L754.566 147.392L752.891 148.338L751.957 148.534L750.988 148.534L749.039 147.953L748.093 147.392L746.325 145.852L744.749 143.981L742.576 141C741.109 138.986 739.627 136.982 738.116 135L733.424 129C731.885 127.021 730.373 125.018 728.884 123L725.291 118L722.421 114L720.255 111C719.492 109.983 718.707 108.987 717.906 108L715.45 105C714.41 103.69 713.411 102.353 712.428 101L711.026 99.0046C710.159 97.7696 709.326 96.5103 708.395 95.321L707.661 94.517L707.317 94.0864L706 93M172.144 67.662L173.043 67.466L174.896 67.662L175.772 68.0471L176.566 68.608L177.258 69.3187L178.258 71.0586L178.772 73.0046L178.891 74.0008C178.961 75.0018 178.982 75.9969 178.996 77L179 80L179 85L179 143L179 151L178.995 154L178.941 155.995L178.682 157.941L178.397 158.852L177.972 159.682L176.682 160.968L175.853 161.377L174 161.704L173.054 161.623L172.147 161.377L171.318 160.968L170.603 160.396L169.603 158.852L169.148 156.981L169.059 155.995L169.005 154L169 151L169 146L169 89L169 79L169.005 75L169.059 73.0046L169.318 71.0586L169.603 70.1481L170.028 69.3187L171.317 68.0471L172.144 67.662M520 134L519.408 135.667L519.164 136.144L518.685 137.12L517.487 138.84L515.867 140.472L514.945 141.211L513.982 141.892C513.015 142.515 512.034 143.118 511 143.626C509.043 144.586 507.023 145.391 505 146.2L501 147.757L499 148.39L497 148.79C496.008 148.933 495.001 148.961 494 148.985L490 149C488.003 148.998 485.989 149.043 484 148.826C482.303 148.642 480.629 148.289 479 147.779C477.984 147.462 476.966 147.102 476 146.651L474 145.674C472.984 145.119 471.984 144.545 471 143.934C469.984 143.304 468.979 142.649 468.004 141.957C466.997 141.242 466.01 140.499 465.09 139.674C463.508 138.257 462.142 136.643 460.808 134.996C459.756 133.698 458.727 132.373 457.774 131C456.88 129.712 456.068 128.374 455.313 127C454.085 124.764 452.984 122.438 452.221 120C451.506 117.718 451.138 115.354 450.754 113C450.537 111.668 450.321 110.343 450.184 109L450.129 107C450.171 105.319 450.479 103.655 450.755 102L451.286 99L451.503 98L452.042 96C452.361 94.9896 452.7 93.9929 453.069 93C453.45 91.9767 453.895 90.9673 454.402 90C455.71 87.5019 457.434 85.2414 459.131 83C460.95 80.598 462.811 78.2277 465.039 76.1852C467.947 73.5193 471.382 71.4329 475 69.8789C476.623 69.1816 478.295 68.6201 480 68.159C481.642 67.7148 483.307 67.3555 485 67.1736C486.659 66.9954 488.334 67.0015 490 67.0015C492.005 67.0015 494.011 67.0159 496 67.3002C497.348 67.4928 498.68 67.8021 500 68.1312L503 68.9097C504.351 69.2939 505.688 69.729 507 70.233C508.018 70.6243 509.012 71.0565 510 71.5185L511.996 72.6096C513.024 73.2064 513.967 73.9417 514.891 74.6836L516.566 76.3009L517.802 78.0895L518.418 79.9954L518.454 80.9452L518.288 81.8519L517.928 82.6775L516.678 83.9174L514.941 84.4035L512.995 84.0872L511.999 83.6775L511 83.142L509 81.841L507 80.4383C505.702 79.5621 504.404 78.7002 503 77.9984C501.099 77.0478 499.061 76.4021 497 75.8997C495.36 75.4999 493.692 75.1796 492 75.1296C489.981 75.0701 487.981 75.4111 486 75.7577L484 76.1235L482 76.6227L480 77.3511C478.977 77.7675 477.99 78.2745 477 78.7608L475 79.7924C473.981 80.3466 472.974 80.9167 472 81.5479C470.972 82.2141 469.989 82.9372 469.015 83.6806C468.025 84.4372 467.073 85.2742 466.21 86.1736L464.61 88.0394L463.905 89.0147L462.63 91.0008L461.49 93C460.965 93.9818 460.497 94.9839 460.043 96L459.246 98L458.595 100L458.34 101C458.12 101.996 457.931 102.995 457.758 104C457.473 105.651 457.177 107.319 457.179 109C457.181 110.353 457.391 111.671 457.617 113L458.015 115C458.547 117.418 459.228 119.813 460.417 122L461.649 124L463.214 126C464.122 127.025 465.056 128.019 466.015 128.996C467.908 130.923 469.858 132.82 472 134.471C473.269 135.449 474.611 136.324 476 137.12C477.293 137.861 478.628 138.538 480 139.12C481.614 139.806 483.269 140.368 485 140.671C486.976 141.018 489.001 140.998 491 140.998C492.665 140.999 494.342 141.007 496 140.826C498.396 140.566 500.778 139.984 503 139.045C504.395 138.455 505.704 137.714 507 136.935L510 135.09L512 134.001L512.998 133.55L514.975 132.924L516.84 132.78L517.841 133.019L520 134M541.213 67.7516L542.065 67.6358L543.787 68.0864L544.57 68.6227L545.258 69.3225L546.258 71.0586L546.566 72.0193L546.772 73.0046L546.891 74.0008L546.985 76L547 79L547 83L547 122L547 128L547.005 132L547.059 133.995L547.148 134.981L547.318 135.941L548.028 137.682L548.603 138.397L550.148 139.397L552.019 139.852L553.005 139.941L556 139.999L558 140L575 140L581 140.001L583 140.015L584.995 140.109L585.981 140.228L586.941 140.434L587.852 140.742L589.392 141.742L590.338 143.209L590.534 144.05L590.534 144.896L590.338 145.698L589.953 146.4L588.681 147.397L586.941 147.867L583.999 148.165C581.996 148.395 580.013 148.773 578 148.91C576.337 149.024 574.666 148.997 573 149L567 149L557 149L551 148.996L549 148.961L548 148.91L546.001 148.695L544.015 148.276L542.109 147.566L540.434 146.436L539.179 144.856C538.146 143.087 538.078 140.988 538.015 139L538 136L538 132L538 105L538 86L538.001 77L538.015 75L538.044 74.0008L538.109 73.0046L538.434 71.0586L538.742 70.1489L539.179 69.3225L539.742 68.6227L541.213 67.7516M423.184 68.7516L424 68.6358L425.582 69.0864L426.262 69.6227L426.822 70.3225L427.566 72.0586L427.892 74.0046L428.089 78L428.285 80C428.517 81.665 428.796 83.3212 428.91 85C428.979 85.9985 428.987 86.9997 428.996 88L429 92C429 94.3318 429.047 96.6708 428.914 99L428.579 103L428.508 105L428.51 106L428.51 108C428.514 109.002 428.52 109.999 428.579 111L428.845 114L428.961 116L428.999 119L429 122L429 132L428.961 136L428.826 138L428.532 140L428.316 140.999L427.736 142.98L427.347 143.937L426.86 144.833L426.273 145.623L424.792 146.654L423.95 146.793L423.104 146.654L422.302 146.248L421.6 145.623L420.603 143.937L420.148 141.995L420.059 140.999L420.005 139L420 136L420 131L420 84L420.001 78L420.044 75.0008L420.228 73.0193L420.742 71.1489L421.178 70.3225L421.738 69.6227L422.418 69.0864L423.184 68.7516M627 69.3256C628.657 69.049 630.326 69.0306 632 69.0039L636 69L640 69.0039C641.675 69.0306 643.343 69.0489 645 69.3256C647.054 69.6686 649.057 70.3287 651 71.0656C653.068 71.8498 655.082 72.7758 657 73.8796C659.121 75.1005 661.128 76.5015 662.91 78.1852C664.148 79.3551 665.292 80.6447 666.319 82.0039C667.06 82.9838 667.783 83.9712 668.455 85C669.094 85.9774 669.681 86.9855 670.258 88C670.82 88.9882 671.356 89.9897 671.877 91L672.802 93L673.532 95C674.275 97.2778 674.686 99.6429 675.079 102L675.406 104C675.551 104.997 675.712 105.99 675.741 107C675.798 109.02 675.392 111.003 675.155 113L674.841 116C674.669 117.351 674.422 118.683 674.076 120C673.81 121.012 673.495 122.018 673.134 123L672.373 125L671.506 127L670.475 129C669.714 130.402 668.767 131.702 667.84 132.996C666.882 134.334 665.84 135.638 664.7 136.826L662.91 138.535L661.961 139.331L659.996 140.84C658.724 141.798 657.385 142.689 656 143.475C654.399 144.382 652.707 145.11 651 145.792C650.008 146.189 649.01 146.559 648 146.907L647 147.215L645 147.686C643.679 147.948 642.331 148.077 641 148.271C639.669 148.465 638.341 148.708 637 148.826C636.001 148.914 635.002 148.942 634 148.896C632.654 148.834 631.324 148.623 630 148.385L627 147.789C625.656 147.498 624.318 147.187 623 146.792C621.642 146.384 620.318 145.893 619 145.373C617.981 144.972 616.97 144.522 616 144.015C614.233 143.09 612.592 141.978 611.015 140.76C609.409 139.521 607.857 138.188 606.465 136.711C605.643 135.839 604.883 134.914 604.16 133.961C603.436 133.006 602.747 132.02 602.118 130.999C600.759 128.794 599.741 126.414 598.815 124C598.434 123.007 598.081 122.009 597.746 121L597.159 119C596.79 117.69 596.494 116.347 596.3 115C595.966 112.684 595.993 110.335 596.001 108C596.006 106.334 595.995 104.659 596.174 103C596.356 101.302 596.734 99.6508 597.159 98C597.508 96.6452 597.941 95.2923 598.478 94C599.058 92.6059 599.757 91.2807 600.556 90C601.195 88.9745 601.898 87.989 602.591 87C603.783 85.2994 604.982 83.59 606.325 82.0039C607.758 80.3108 609.325 78.7499 611.004 77.3009L613 75.6806L614 74.9282L616 73.5594L618 72.402C619.601 71.563 621.294 70.9423 623 70.3596C624.301 69.9153 625.643 69.5522 627 69.3256M357 75.3256C358.656 75.0498 360.326 75.0185 362 75.0185C363.336 75.0185 364.682 75.106 366 75.3256C367.706 75.6098 369.363 76.1285 371 76.6744C372.35 77.1246 373.706 77.5921 375 78.1883C376.042 78.6683 377.045 79.2164 378 79.8534C379.803 81.0559 381.429 82.5115 382.96 84.0401C385.057 86.1341 386.993 88.42 388.468 91C389.723 93.1965 390.548 95.6037 391.329 98C391.864 99.642 392.39 101.292 392.674 103C392.895 104.323 392.965 105.661 392.981 107C392.998 108.331 392.976 109.677 392.816 111L392.482 113L392.24 114C391.96 115.009 391.653 116.005 391.329 117C390.548 119.396 389.723 121.804 388.468 124C387.222 126.18 385.648 128.156 383.907 129.96C382.128 131.803 380.165 133.492 378 134.867C377.045 135.473 376.04 136.033 375 136.481C373.369 137.185 371.7 137.766 370 138.279C368.358 138.773 366.689 139.231 365 139.535C364.005 139.715 363.008 139.84 362 139.91C361.001 139.979 360.001 139.982 359 139.981C357.664 139.981 356.318 139.894 355 139.674C353.294 139.39 351.626 138.881 350 138.3C348.271 137.682 346.564 136.977 345 136.005L343 134.606L342 133.786L340.001 131.957L339.004 130.985L337.043 128.999L335.213 127L334.39 126L333.638 125L332.363 123L331.327 121C330.729 119.688 330.179 118.36 329.699 117C329.35 116.01 329.045 115.01 328.761 114L328.518 113L328.326 112C328.139 111.018 328.079 109.998 328.055 109C328.023 107.663 328.109 106.323 328.3 105C328.495 103.649 328.808 102.319 329.156 101C329.693 98.9627 330.316 96.9231 331.185 95C331.978 93.2443 332.962 91.585 334.055 90C335.271 88.2357 336.62 86.571 338.093 85.0154C339.597 83.4281 341.205 81.9054 343 80.6489C343.943 79.9888 344.951 79.3931 346 78.9159L347 78.4684C348.318 77.9347 349.653 77.4585 351 77.0039C352.965 76.3407 354.949 75.6673 357 75.3256M630 77.5177C628.297 77.8811 626.626 78.4483 625 79.0656C622.55 79.9958 620.14 81.1066 618.001 82.6381C616.232 83.9044 614.64 85.4023 613.185 87.0154L611.529 89.0008L610.789 90L610.105 91L608.88 93C608.31 93.9619 607.802 94.9784 607.349 96C606.223 98.5358 605.474 101.24 605.174 104C604.993 105.659 605.006 107.334 605.001 109L605.015 112C605.043 113.34 605.104 114.676 605.326 116C605.61 117.706 606.119 119.374 606.7 121L607.468 123L607.912 124L608.402 125L609.559 127C610.233 128.021 610.922 129.025 611.681 129.985C612.461 130.973 613.276 131.931 614.174 132.815C615.06 133.687 616.012 134.478 617.015 135.211C618.858 136.558 620.888 137.662 623 138.525C624.303 139.057 625.647 139.459 627 139.841L629 140.331C629.993 140.543 630.989 140.72 632 140.826C632.996 140.932 633.999 140.968 635 140.981C636.334 140.999 637.672 140.962 639 140.829C640.343 140.695 641.681 140.466 643 140.181L645 139.699L646 139.402L648 138.651C649.358 138.049 650.698 137.405 651.999 136.687C654.046 135.557 656.012 134.303 657.699 132.671L659.319 130.907L660.779 128.985C661.438 128.013 662.097 127.037 662.651 126L663.674 124C664.123 123.01 664.549 122.016 664.934 121C665.672 119.057 666.331 117.054 666.674 115C667.005 113.019 666.998 111.002 666.998 109C666.999 107.329 666.974 105.665 666.826 104L666.699 103L666.532 102L666.073 100C665.61 98.2841 664.973 96.6228 664.254 95C663.48 93.2547 662.631 91.5469 661.502 90C660.459 88.5723 659.238 87.2797 657.982 86.0401C656.722 84.7974 655.403 83.6086 654 82.5293C652.442 81.3307 650.774 80.2554 649 79.4028C646.799 78.3448 644.413 77.6575 642 77.3009C640.016 77.0078 638.001 76.9897 636 77.0046C634.998 77.0121 634.001 77.0376 633 77.0934L632 77.1844L630 77.5177M194.001 81.662L194.91 81.662L196.606 82.223L197.347 82.7577L197.991 83.4375L198.991 85.1088C199.693 86.6461 199.86 88.3352 199.957 90L199.996 92L200 95L200 138L199.996 141L199.957 143C199.86 144.665 199.693 146.354 198.991 147.891L197.991 149.562L197.348 150.242L196.61 150.777L195.802 151.149L194.938 151.338L194.062 151.338L192.39 150.777L191.652 150.242L191.009 149.562L190.009 147.891C189.307 146.354 189.14 144.665 189.043 143L189.004 141L189 138L189 95L189.001 92L189.044 89.0008L189.228 87.0154L189.742 85.1088L190.742 83.4375L192.225 82.223L194.001 81.662M41.9568 84.7515L42.8557 84.8318L44.3966 85.6474L45.3966 87.152L45.8519 89.0193L45.9414 90.0046L45.9992 93L46 95L46 115L46 122L45.9961 126C45.9822 126.998 45.9613 127.988 45.8912 128.985L45.7716 129.956L45.2577 131.772L44.2577 133.253L42.7755 134.199L41 134.454L39.2245 133.928L37.7423 132.678L36.7423 130.941L36.2284 128.995L36.044 127L36.0154 126L36.0008 124L36 117L36 104L36 97L36.0154 94L36.044 93L36.2284 91.0039L36.4336 90.0154L37.179 88.1088L38.4336 86.4383L40.1042 85.2377L41.9568 84.7515M113.274 88.662L114.996 88.466L116.687 89.0471L117.972 90.3187L118.397 91.1481L118.682 92.0586L118.941 94.0046L118.981 95.0008L118.999 97L119 103L119 121L118.999 123L118.995 123.999L118.941 125.981L118.852 126.941L118.397 128.682L117.397 129.968L116.686 130.377L114.985 130.704L113.224 130.377L111.742 129.396L110.742 127.852L110.434 126.941L110.109 124.995L110.015 123L110.001 121L110 114L110 103L110.001 99L110.015 97L110.094 95.0008L110.189 94.0046L110.344 93.0193L110.894 91.1481L111.318 90.3187L111.858 89.608L113.274 88.662M356 88.4684L354 88.939L353 89.2492L352 89.6134L350.004 90.5579L348.043 91.8032L347.105 92.5332L345.39 94.1852L343.97 96.0401L343.367 97.0147L342.363 99.0008L341.599 101L341.301 102L340.82 104C340.61 104.995 340.452 105.991 340.329 107L340.259 109L340.326 110C340.439 111.005 340.588 112.003 340.758 113L341.124 115L341.354 116L341.634 116.999L342.417 118.985L342.92 119.96L343.483 120.907L344.789 122.671C346.465 124.614 348.64 126.051 351.004 127.02C352.601 127.675 354.307 128.069 356 128.38C356.992 128.563 357.992 128.73 359 128.79C360.345 128.87 361.675 128.767 363 128.528C364.716 128.218 366.424 127.7 368 126.95L369.996 125.856L370.985 125.197L371.96 124.467L373.812 122.815L375.442 120.96L376.146 119.985L377.312 117.999L378.147 116L378.446 115L378.674 114C378.908 112.675 379.079 111.342 379.181 110C379.257 109 379.308 108.003 379.289 107C379.271 105.996 379.18 104.998 379.076 104C378.971 102.995 378.801 101.971 378.515 101L377.772 99.0008L376.713 97.0147L375.387 95.0934L373.79 93.3287L372.896 92.5293L371.957 91.7894L369.996 90.483L368.999 89.9198L368 89.4174L366 88.6489C364.377 88.1595 362.686 88.0383 361 88.0301C359.326 88.0219 357.645 88.1522 356 88.4684M212.144 91.7122L213.961 91.5818L215.687 92.1983L217.012 93.4344L217.485 94.2284L217.848 95.1088L218.326 97.0154C218.502 97.9912 218.589 99.0084 218.544 100C218.483 101.34 218.3 102.666 218.166 104L218.039 106L218.001 109L217.996 114L217.906 117L217.656 118.999L217.106 120.981L216.682 121.941L216.142 122.847L215.487 123.663L214.726 124.338L213.004 125.079L212.13 125.079L210.603 124.338L209.603 122.847L209.318 121.941L209.148 120.981L209.019 118.999L209.001 117L209 115L209 109L209 102L209.001 100L209.019 98.0008L209.148 96.0193L209.318 95.0586L210.028 93.3218L211.317 92.0718L212.144 91.7122M23.1397 106.662L24.9606 106.466L25.8565 106.662L26.6829 107.047L27.3966 107.608L28.3966 109.148L28.8519 111.019L28.9799 113.001L28.9907 114L28.9414 115.995L28.6821 117.941L27.9722 119.681L26.6829 120.953L25.8557 121.338L24.9568 121.534L23.1042 121.338L22.2276 120.953L21.4336 120.392L20.7423 119.681L19.7461 117.941L19.2677 115.995L19.2184 114L19.3202 113.001L19.4869 112.005L20.0324 110.059L20.9383 108.319L22.3025 107.047L23.1397 106.662z"/>
</svg>
