<?xml version="1.0" standalone="yes"?>
<svg xmlns="http://www.w3.org/2000/svg" width="771" height="227">
<path style="fill:#020202; stroke:none;" d="M0 0L0 227L771 227L771 0L0 0M140 6.34491C147.863 4.77046 154.924 9.4677 157.2 17C159.904 25.951 158 37.703 158 47C158 90.642 159 134.298 159 178C159 190.621 162.846 216.216 145 218.782C137.751 219.825 131.823 214.697 129.8 208C127.012 198.771 129 186.589 129 177C129 133.697 126.634 90.1908 128.87 47C129.473 35.3494 123.856 9.5777 140 6.34491M99 199C96.5084 198.477 93.492 198.114 91.564 196.272C89.177 193.992 89.0912 190.067 89.0147 187C88.8485 180.341 89 173.661 89 167L89 68C89 58.44 87.2732 48.4301 88.5764 39C89.0204 35.7869 88.9594 31.8705 92.1481 30.0316C96.4561 27.5474 100.389 30.6609 100.891 35.0154C102.053 45.0839 101 55.8636 101 66C101 97.3156 102 128.628 102 160C102 171.68 105.212 188.777 99 199M352 55.2894C373.835 52.9377 395.999 69.7874 403.988 89C407.26 96.8682 408.251 104.522 407.985 113C407.896 115.802 407.551 120.349 403.935 120.824C401.535 121.139 400.026 118.976 399.434 116.955C397.881 111.662 398.845 105.507 397.572 100C394.006 84.5788 380.566 69.7654 365 66.0401C344.648 61.1694 323.663 71.9116 313.901 90C309.745 97.7021 310.117 105.697 308.786 113.996C308.423 116.262 307.147 120.268 304.109 119.824C300.825 119.344 300.144 114.591 300.058 112C299.817 104.779 301.764 96.6535 304.453 90C312.347 70.47 331.279 57.521 352 55.2894M61.1296 56.4529C70.4158 53.9521 68 70.0007 68 75L68 142C68 148.263 68.4949 154.756 67.9414 160.995C67.7118 163.583 66.8644 166.12 63.946 166.573C54.918 167.976 56.9764 150.12 57.0008 145C57.1068 122.707 57 100.336 57 78C57 72.852 54.4555 58.2504 61.1296 56.4529M265 121C271.035 113.175 273.416 103.035 277.139 94C279.309 88.7343 281.391 83.3633 283.308 78C284.935 73.4489 286.124 65.6119 290.228 62.6188C294.236 59.6954 299.45 63.3398 298.867 68.0039C298.168 73.6055 294.652 79.7145 292.681 85C287.29 99.4529 280.867 113.474 275.692 128C273.813 133.275 272.485 138.943 269.945 143.955C268.96 145.899 267.519 148.134 264.999 147.824C258.857 147.068 256.908 134.68 255.333 130C250.354 115.211 244.285 100.799 239.333 86C237.56 80.7002 233.36 73.6513 233.72 68.0039C234 63.6083 238.606 59.7208 242.351 63.4491C246.234 67.3141 247.648 74.9462 249.333 80C250.996 84.9884 252.586 89.9948 254.194 95C257.062 103.926 260.98 112.55 265 121M706 93C705.655 101.035 705 108.916 705 117C705 122.074 705.122 126.963 705.714 132C706.199 136.117 706.664 142.039 704.493 145.772C701.599 150.749 695.401 148.73 693.804 143.956C691.802 137.969 693 130.239 693 124L693 83C693 78.2063 690.848 65.1978 698.044 64.466C704.244 63.8355 709.128 73.8556 712.151 78C717.357 85.1357 723.144 91.8233 728.29 99C733.023 105.601 737.394 113.137 744 118L744 94C744 86.0905 742.173 75.4601 745.148 68.0046C746.837 63.7714 752.513 59.6026 755.566 65.1481C758.569 70.601 756.179 77.2538 756.179 83C756.179 96.9255 757 111.004 757 125C757 130.298 759.828 147.731 751.957 148.534C745.95 149.147 741.146 138.973 738.116 135C730.516 125.035 723.239 114.811 715.45 105C712.274 101 709.768 96.4533 706 93M172.144 67.662C180.701 64.7603 179 80.7956 179 85L179 143C179 147.484 181.148 159.32 175.853 161.377C167.265 164.714 169 150.338 169 146L169 89C169 84.3659 166.555 69.5573 172.144 67.662M484 67.3002C493.155 65.9804 504.054 67.7342 511.996 72.6096C514.827 74.3472 522.188 80.734 516.678 83.9174C512.138 86.5405 502.733 77.4569 498 76.1597C481.996 71.7739 464.652 83.0116 459.246 98C450.903 121.134 472.944 143.333 496 140.826C501.845 140.191 505.97 137.186 511 134.519C512.782 133.574 515.562 132.07 517.588 133.213C522.447 135.954 514.109 141.915 511.999 143.096C506.289 146.292 499.571 148.907 493 148.996C474.476 149.246 458.89 138.965 452.548 121C444.587 98.4479 459.77 70.7931 484 67.3002M541.213 67.7516C548.326 65.8235 547 79.4175 547 83L547 122C547 126.285 545.548 133.966 548.028 137.682C550.066 140.737 554.85 139.999 558 140C566.842 140.004 576.21 139.108 584.995 140.109C588.257 140.48 593.759 144.854 588.681 147.397C585.929 148.776 581.057 148.701 578 148.91C569.095 149.52 559.925 149.103 551 148.996C546.904 148.947 541.522 148.869 539.179 144.856C537.113 141.318 538 135.928 538 132L538 105C538 95.6671 537.952 86.3328 538.001 77C538.016 74.1474 537.57 68.739 541.213 67.7516M423.184 68.7516C429.099 67.0822 428.683 81.6796 428.91 85C429.969 100.45 429.025 116.486 429 132C428.994 135.792 429.559 145.129 424.792 146.654C418.421 148.692 420 134.026 420 131L420 84C420 80.3154 418.322 70.1239 423.184 68.7516M627 69.3256C639.287 67.2738 653.597 69.3871 662.91 78.1852C685.242 99.2835 676.558 141.42 645 147.686C628.807 150.901 611.131 145.623 602.118 130.999C588.48 108.871 599.345 73.9436 627 69.3256M357 75.3256C377.06 71.9835 395.197 91.3009 392.816 111C390.997 126.046 379.606 136.907 365 139.535C347.271 142.726 328.486 127.123 328.055 109C327.66 92.3875 341.046 77.9836 357 75.3256M630 77.5177C597.915 84.3631 596.182 133.329 629 140.331C633.6 141.312 638.413 141.172 643 140.181C674.539 133.363 675.164 82.2013 642 77.3009C638.162 76.7338 633.801 76.7068 630 77.5177M194.001 81.662C200.585 80.9786 199.998 90.9551 200 95L200 138C199.998 142.025 200.733 150.71 194.938 151.338C188.415 152.045 189.002 141.964 189 138L189 95C189 90.8006 187.94 82.2911 194.001 81.662M41.9568 84.7515C46.862 84.6245 45.9986 91.881 46 95C46.0047 105.33 46.1405 115.671 45.9961 126C45.9503 129.283 45.6938 134.821 41 134.454C35.9459 134.058 36.0202 127.677 36.0008 124C35.9467 113.737 35.4021 103.242 36.044 93C36.2579 89.5871 37.7394 84.8607 41.9568 84.7515M113.274 88.662C116.942 87.3277 118.682 91.0791 118.941 94.0046C119.727 102.862 119.004 112.106 119 121C118.999 123.767 119.865 128.971 116.686 130.377C112.791 132.101 110.479 128.246 110.109 124.995C109.081 115.968 109.773 106.083 110.015 97C110.088 94.2508 110.115 89.811 113.274 88.662M356 88.4684C331.715 93.1359 337.469 133.133 363 128.528C388.289 123.967 382.165 83.4396 356 88.4684M212.144 91.7122C215.737 90.5939 217.79 94.0404 218.326 97.0154C219.404 102.996 218.891 113.02 217.656 118.999C217.158 121.41 215.818 124.682 213.004 125.079C209.59 125.559 209.123 121.388 209.019 118.999C208.718 112.082 208.718 104.918 209.019 98.0008C209.125 95.5754 209.399 92.5664 212.144 91.7122M23.1397 106.662C30.2872 104.259 31.2534 119.508 25.8557 121.338C18.1963 123.935 16.8782 108.767 23.1397 106.662z"/>
</svg>
